<mxfile host="embed.diagrams.net" modified="2024-01-15T13:30:29.959Z" agent="Mozilla/5.0 (X11; Linux x86_64; rv:121.0) Gecko/20100101 Firefox/121.0" etag="hCXrYJhvKkapg8A1pDoe" version="22.1.18" type="embed">
  <diagram name="Page-1" id="0783ab3e-0a74-02c8-0abd-f7b4e66b4bec">
    <mxGraphModel dx="2908" dy="1126" grid="1" gridSize="10" guides="1" tooltips="1" connect="1" arrows="1" fold="1" page="1" pageScale="1" pageWidth="850" pageHeight="1100" background="none" math="0" shadow="0">
      <root>
        <mxCell id="0" />
        <mxCell id="1" parent="0" />
        <mxCell id="2" value="" style="ellipse;html=1;shape=startState;fillColor=#000000;strokeColor=#000000;" parent="1" vertex="1">
          <mxGeometry x="-476.1" y="50" width="50" height="50" as="geometry" />
        </mxCell>
        <mxCell id="94" style="edgeStyle=orthogonalEdgeStyle;rounded=0;orthogonalLoop=1;jettySize=auto;html=1;exitX=0.5;exitY=1;exitDx=0;exitDy=0;entryX=0.5;entryY=0;entryDx=0;entryDy=0;" edge="1" parent="1">
          <mxGeometry relative="1" as="geometry">
            <mxPoint x="-451.4999999999999" y="580" as="sourcePoint" />
            <mxPoint x="-451.4999999999999" y="630" as="targetPoint" />
          </mxGeometry>
        </mxCell>
        <mxCell id="103" value="[souhaiteRemplirBD]" style="edgeLabel;html=1;align=center;verticalAlign=middle;resizable=0;points=[];" vertex="1" connectable="0" parent="94">
          <mxGeometry x="0.04" y="1" relative="1" as="geometry">
            <mxPoint as="offset" />
          </mxGeometry>
        </mxCell>
        <mxCell id="99" style="edgeStyle=orthogonalEdgeStyle;rounded=0;orthogonalLoop=1;jettySize=auto;html=1;exitX=0.5;exitY=1;exitDx=0;exitDy=0;entryX=0.5;entryY=0;entryDx=0;entryDy=0;" edge="1" parent="1" source="6" target="98">
          <mxGeometry relative="1" as="geometry" />
        </mxCell>
        <mxCell id="6" value="Gérer Catalogue" style="html=1;whiteSpace=wrap;" parent="1" vertex="1">
          <mxGeometry x="-514" y="400" width="120" height="50" as="geometry" />
        </mxCell>
        <mxCell id="21" value="" style="endArrow=classic;html=1;rounded=0;entryX=0.5;entryY=0;entryDx=0;entryDy=0;exitX=0.5;exitY=1;exitDx=0;exitDy=0;" parent="1" source="2" edge="1">
          <mxGeometry width="50" height="50" relative="1" as="geometry">
            <mxPoint x="-441.1" y="102.18" as="sourcePoint" />
            <mxPoint x="-451.1" y="160" as="targetPoint" />
          </mxGeometry>
        </mxCell>
        <mxCell id="97" style="edgeStyle=orthogonalEdgeStyle;rounded=0;orthogonalLoop=1;jettySize=auto;html=1;exitX=0.5;exitY=1;exitDx=0;exitDy=0;entryX=0.5;entryY=0;entryDx=0;entryDy=0;" edge="1" parent="1" source="25" target="27">
          <mxGeometry relative="1" as="geometry" />
        </mxCell>
        <mxCell id="25" value="Défini les attributs de l&#39;article" style="html=1;whiteSpace=wrap;" parent="1" vertex="1">
          <mxGeometry x="-510.7999999999999" y="630" width="118.6" height="50" as="geometry" />
        </mxCell>
        <mxCell id="35" style="edgeStyle=orthogonalEdgeStyle;rounded=0;orthogonalLoop=1;jettySize=auto;html=1;entryX=0.5;entryY=0;entryDx=0;entryDy=0;exitX=0.5;exitY=1;exitDx=0;exitDy=0;" parent="1" source="108" target="34" edge="1">
          <mxGeometry relative="1" as="geometry">
            <mxPoint x="-450.4" y="990" as="sourcePoint" />
          </mxGeometry>
        </mxCell>
        <mxCell id="102" style="edgeStyle=orthogonalEdgeStyle;rounded=0;orthogonalLoop=1;jettySize=auto;html=1;exitX=0.5;exitY=1;exitDx=0;exitDy=0;" edge="1" parent="1">
          <mxGeometry relative="1" as="geometry">
            <mxPoint x="-451.4" y="856" as="targetPoint" />
            <mxPoint x="-451.4999999999999" y="776" as="sourcePoint" />
          </mxGeometry>
        </mxCell>
        <mxCell id="27" value="Ajoute l&#39;article à la base de données" style="html=1;whiteSpace=wrap;" parent="1" vertex="1">
          <mxGeometry x="-506.4999999999999" y="730" width="110" height="50" as="geometry" />
        </mxCell>
        <mxCell id="29" value="" style="ellipse;html=1;shape=endState;fillColor=#000000;strokeColor=#000000;" parent="1" vertex="1">
          <mxGeometry x="-603.6000000000001" y="340" width="42.2" height="40" as="geometry" />
        </mxCell>
        <mxCell id="34" value="" style="shape=sumEllipse;perimeter=ellipsePerimeter;whiteSpace=wrap;html=1;backgroundOutline=1;" parent="1" vertex="1">
          <mxGeometry x="-475.39999999999986" y="1020" width="50" height="50" as="geometry" />
        </mxCell>
        <mxCell id="48" style="edgeStyle=orthogonalEdgeStyle;rounded=0;orthogonalLoop=1;jettySize=auto;html=1;exitX=0.5;exitY=1;exitDx=0;exitDy=0;entryX=0.5;entryY=0;entryDx=0;entryDy=0;" parent="1" source="36" target="47" edge="1">
          <mxGeometry relative="1" as="geometry">
            <Array as="points">
              <mxPoint x="-451.1" y="263.82" />
              <mxPoint x="-452.1" y="263.82" />
            </Array>
          </mxGeometry>
        </mxCell>
        <mxCell id="36" value="Se connecter" style="html=1;whiteSpace=wrap;" parent="1" vertex="1">
          <mxGeometry x="-506.1" y="160" width="110" height="50" as="geometry" />
        </mxCell>
        <mxCell id="49" style="edgeStyle=orthogonalEdgeStyle;rounded=0;orthogonalLoop=1;jettySize=auto;html=1;exitX=0.5;exitY=1;exitDx=0;exitDy=0;" parent="1" source="47" edge="1">
          <mxGeometry relative="1" as="geometry">
            <mxPoint x="-451.6" y="400" as="targetPoint" />
          </mxGeometry>
        </mxCell>
        <mxCell id="52" value="[estAdmin]" style="edgeLabel;html=1;align=center;verticalAlign=middle;resizable=0;points=[];" parent="49" vertex="1" connectable="0">
          <mxGeometry x="0.042" y="-1" relative="1" as="geometry">
            <mxPoint x="32" y="-36" as="offset" />
          </mxGeometry>
        </mxCell>
        <mxCell id="51" style="edgeStyle=orthogonalEdgeStyle;rounded=0;orthogonalLoop=1;jettySize=auto;html=1;exitX=0;exitY=0.5;exitDx=0;exitDy=0;entryX=0.5;entryY=0;entryDx=0;entryDy=0;" parent="1" source="47" target="29" edge="1">
          <mxGeometry relative="1" as="geometry">
            <mxPoint x="-588.6" y="317.81999999999994" as="targetPoint" />
          </mxGeometry>
        </mxCell>
        <mxCell id="47" value="" style="rhombus;whiteSpace=wrap;html=1;" parent="1" vertex="1">
          <mxGeometry x="-491.1" y="247.82" width="80" height="80" as="geometry" />
        </mxCell>
        <mxCell id="53" value="[else]" style="edgeLabel;html=1;align=center;verticalAlign=middle;resizable=0;points=[];" parent="1" vertex="1" connectable="0">
          <mxGeometry x="-442.104173766288" y="427.82384622500786" as="geometry">
            <mxPoint x="-60" y="-157" as="offset" />
          </mxGeometry>
        </mxCell>
        <mxCell id="112" style="edgeStyle=orthogonalEdgeStyle;rounded=0;orthogonalLoop=1;jettySize=auto;html=1;exitX=0;exitY=0.5;exitDx=0;exitDy=0;entryX=0.5;entryY=0;entryDx=0;entryDy=0;" edge="1" parent="1" source="98" target="105">
          <mxGeometry relative="1" as="geometry" />
        </mxCell>
        <mxCell id="113" value="[souhaiteModifierBD]" style="edgeLabel;html=1;align=center;verticalAlign=middle;resizable=0;points=[];" vertex="1" connectable="0" parent="112">
          <mxGeometry x="0.6259" y="1" relative="1" as="geometry">
            <mxPoint x="45" y="-68" as="offset" />
          </mxGeometry>
        </mxCell>
        <mxCell id="98" value="" style="rhombus;whiteSpace=wrap;html=1;" vertex="1" parent="1">
          <mxGeometry x="-494" y="500" width="80" height="80" as="geometry" />
        </mxCell>
        <mxCell id="101" value="" style="endArrow=none;html=1;rounded=0;strokeWidth=8;" edge="1" parent="1">
          <mxGeometry width="50" height="50" relative="1" as="geometry">
            <mxPoint x="-586.5" y="860" as="sourcePoint" />
            <mxPoint x="-316.5" y="860" as="targetPoint" />
            <Array as="points" />
          </mxGeometry>
        </mxCell>
        <mxCell id="104" style="edgeStyle=orthogonalEdgeStyle;rounded=0;orthogonalLoop=1;jettySize=auto;html=1;exitX=0.5;exitY=1;exitDx=0;exitDy=0;entryX=0.5;entryY=0;entryDx=0;entryDy=0;" edge="1" parent="1" source="105" target="106">
          <mxGeometry relative="1" as="geometry" />
        </mxCell>
        <mxCell id="105" value="Choisi un article de la base de données" style="html=1;whiteSpace=wrap;" vertex="1" parent="1">
          <mxGeometry x="-650.4" y="630" width="118.6" height="50" as="geometry" />
        </mxCell>
        <mxCell id="107" style="edgeStyle=orthogonalEdgeStyle;rounded=0;orthogonalLoop=1;jettySize=auto;html=1;exitX=0.5;exitY=1;exitDx=0;exitDy=0;" edge="1" parent="1" source="106">
          <mxGeometry relative="1" as="geometry">
            <mxPoint x="-540.4" y="857" as="targetPoint" />
            <mxPoint x="-591.0999999999998" y="777" as="sourcePoint" />
          </mxGeometry>
        </mxCell>
        <mxCell id="106" value="Change les attributs de l&#39;article" style="html=1;whiteSpace=wrap;" vertex="1" parent="1">
          <mxGeometry x="-646.0999999999999" y="730" width="110" height="50" as="geometry" />
        </mxCell>
        <mxCell id="110" value="" style="edgeStyle=orthogonalEdgeStyle;rounded=0;orthogonalLoop=1;jettySize=auto;html=1;" edge="1" parent="1" source="108" target="34">
          <mxGeometry relative="1" as="geometry" />
        </mxCell>
        <mxCell id="108" value="Met à jour la base de données" style="html=1;whiteSpace=wrap;" vertex="1" parent="1">
          <mxGeometry x="-505.39999999999986" y="920" width="110" height="50" as="geometry" />
        </mxCell>
        <mxCell id="111" style="edgeStyle=orthogonalEdgeStyle;rounded=0;orthogonalLoop=1;jettySize=auto;html=1;exitX=0.5;exitY=1;exitDx=0;exitDy=0;" edge="1" parent="1">
          <mxGeometry relative="1" as="geometry">
            <mxPoint x="-450.79999999999995" y="920" as="targetPoint" />
            <mxPoint x="-450.89999999999986" y="840" as="sourcePoint" />
          </mxGeometry>
        </mxCell>
        <mxCell id="118" style="edgeStyle=orthogonalEdgeStyle;rounded=0;orthogonalLoop=1;jettySize=auto;html=1;exitX=0.5;exitY=1;exitDx=0;exitDy=0;entryX=0.5;entryY=0;entryDx=0;entryDy=0;" edge="1" parent="1" source="115" target="117">
          <mxGeometry relative="1" as="geometry" />
        </mxCell>
        <mxCell id="115" value="Choisi un article de la base de données" style="html=1;whiteSpace=wrap;" vertex="1" parent="1">
          <mxGeometry x="-370.4" y="630" width="118.6" height="50" as="geometry" />
        </mxCell>
        <mxCell id="116" style="edgeStyle=orthogonalEdgeStyle;rounded=0;orthogonalLoop=1;jettySize=auto;html=1;exitX=1;exitY=0.5;exitDx=0;exitDy=0;entryX=0.5;entryY=0;entryDx=0;entryDy=0;" edge="1" parent="1" source="98" target="115">
          <mxGeometry relative="1" as="geometry" />
        </mxCell>
        <mxCell id="120" value="[souhaiteViderBD]" style="edgeLabel;html=1;align=center;verticalAlign=middle;resizable=0;points=[];" vertex="1" connectable="0" parent="116">
          <mxGeometry x="-0.7346" y="3" relative="1" as="geometry">
            <mxPoint x="23" y="-11" as="offset" />
          </mxGeometry>
        </mxCell>
        <mxCell id="119" style="edgeStyle=orthogonalEdgeStyle;rounded=0;orthogonalLoop=1;jettySize=auto;html=1;exitX=0.5;exitY=1;exitDx=0;exitDy=0;" edge="1" parent="1" source="117">
          <mxGeometry relative="1" as="geometry">
            <mxPoint x="-360.4" y="856" as="targetPoint" />
            <mxPoint x="-311.0999999999998" y="776" as="sourcePoint" />
          </mxGeometry>
        </mxCell>
        <mxCell id="117" value="Confirme sa décision" style="html=1;whiteSpace=wrap;" vertex="1" parent="1">
          <mxGeometry x="-370.4" y="730" width="118.6" height="50" as="geometry" />
        </mxCell>
      </root>
    </mxGraphModel>
  </diagram>
</mxfile>
